<svg width="20" height="20" viewBox="0 0 20 20" fill="none" xmlns="http://www.w3.org/2000/svg">
<path d="M10.1368 0.250418C4.65341 0.176355 0.176843 4.65292 0.250906 10.1364C0.324031 15.3953 4.60606 19.6773 9.86497 19.7504C15.3493 19.8254 19.825 15.3489 19.75 9.86542C19.6778 4.60557 15.3958 0.323543 10.1368 0.250418ZM9.34981 9.27245L11.7662 6.50682C11.8971 6.35702 12.0822 6.26535 12.2807 6.25199C12.4792 6.23863 12.6748 6.30467 12.8247 6.43557C12.9745 6.56648 13.0661 6.75154 13.0795 6.95004C13.0929 7.14853 13.0268 7.34421 12.8959 7.49401L10.4795 10.2596C10.4147 10.3338 10.3359 10.3945 10.2476 10.4382C10.1593 10.4819 10.0633 10.5079 9.96504 10.5145C9.86675 10.5211 9.76813 10.5083 9.67479 10.4768C9.58146 10.4453 9.49524 10.3957 9.42106 10.3309C9.34689 10.2661 9.2862 10.1873 9.24248 10.099C9.19875 10.0107 9.17284 9.91471 9.16623 9.81642C9.15961 9.71814 9.17242 9.61951 9.20392 9.52618C9.23542 9.43284 9.28499 9.34663 9.34981 9.27245ZM7.52825 13.531C7.38761 13.6716 7.19692 13.7505 6.99809 13.7505C6.79927 13.7505 6.60858 13.6716 6.46794 13.531L4.22028 11.281C4.15066 11.2114 4.09545 11.1286 4.05779 11.0376C4.02013 10.9466 4.00078 10.8491 4.00082 10.7506C4.00086 10.6521 4.02031 10.5545 4.05804 10.4635C4.09578 10.3725 4.15107 10.2899 4.22075 10.2203C4.29043 10.1506 4.37315 10.0954 4.46417 10.0578C4.55519 10.0201 4.65273 10.0008 4.75124 10.0008C4.84974 10.0008 4.94727 10.0203 5.03826 10.058C5.12925 10.0958 5.21191 10.151 5.28153 10.2207L7.53153 12.4707C7.67164 12.6118 7.75 12.8027 7.74939 13.0016C7.74877 13.2004 7.66923 13.3908 7.52825 13.531ZM15.8157 7.49401L10.5714 13.494C10.5038 13.5714 10.4211 13.6341 10.3282 13.6782C10.2354 13.7224 10.1345 13.7469 10.0318 13.7504H10.0065C9.90798 13.7504 9.81039 13.731 9.71934 13.6933C9.62829 13.6556 9.54557 13.6003 9.47591 13.5306L7.22872 11.2806C7.08811 11.1398 7.00917 10.949 7.00926 10.7501C7.00935 10.5512 7.08846 10.3604 7.22919 10.2198C7.36992 10.0792 7.56074 10.0002 7.75968 10.0003C7.95861 10.0004 8.14936 10.0795 8.28997 10.2203L9.68684 11.6185C9.72316 11.6549 9.76654 11.6833 9.81432 11.7022C9.86209 11.7211 9.91323 11.7299 9.96456 11.7282C10.0159 11.7265 10.0663 11.7143 10.1127 11.6922C10.1591 11.6702 10.2005 11.6389 10.2343 11.6003L14.6875 6.50682C14.8184 6.35702 15.0034 6.26535 15.2019 6.25199C15.4004 6.23863 15.5961 6.30467 15.7459 6.43557C15.8957 6.56648 15.9874 6.75154 16.0007 6.95004C16.0141 7.14853 15.9481 7.34421 15.8172 7.49401H15.8157Z" fill="#B60158"/>
</svg>
